# Alias OBJ Model File
# Exported from SketchUp, (c) 2000-2012 Trimble Navigation Limited
# File units = meters

mtllib cube.mtl

g Mesh1 Model

usemtl FrontColor
v 52.5 0 -0
vt -2066.93 0
vn 0 -1 -0
v 0 0 -0
vt 0 0
v 0 0 -73.78
vt 0 2904.72
v 52.5 0 -73.78
vt -2066.93 2904.72
f 1/1/1 2/2/1 3/3/1 4/4/1 

vn 0 0 1
vt 2066.93 0
v 52.5 53.66 -0
vt 2066.93 2112.6
v 0 53.66 -0
vt 0 2112.6
f 2/2/2 1/5/2 5/6/2 6/7/2 

vn 1 0 -0
vt 2904.72 0
v 52.5 53.66 -73.78
vt 2904.72 2112.6
f 1/2/3 4/8/3 7/9/3 5/7/3 

vn 0 0 -1
v 0 53.66 -73.78
vt -2066.93 2112.6
f 4/1/4 3/2/4 8/7/4 7/10/4 

vt -2904.72 0
vn -1 0 -0
vt -2904.72 2112.6
f 3/11/5 2/2/5 6/7/5 8/12/5 

vn 0 1 -0
vt 2066.93 2904.72
f 6/2/6 5/5/6 7/13/6 8/3/6 

