# Rhino

mtllib water.mtl
usemtl diffuse_Black
v 199.73765563964844 -10 -10.021109580993652
v 199.73765563964844 -60 -10.021109580993652
v 199.73765563964844 -10 -1010.0211181640625
v 199.73765563964844 -60 -1010.0211181640625
v 199.73765563964844 -10 -1010.0211181640625
v 199.73765563964844 -60 -1010.0211181640625
v 1199.7376708984375 -10 -1010.0211181640625
v 1199.7376708984375 -60 -1010.0211181640625
v 1199.7376708984375 -10 -1010.0211181640625
v 1199.7376708984375 -60 -1010.0211181640625
v 1199.7376708984375 -10 -10.021109580993652
v 1199.7376708984375 -60 -10.021109580993652
v 1199.7376708984375 -10 -10.021109580993652
v 1199.7376708984375 -60 -10.021109580993652
v 199.73765563964844 -10 -10.021109580993652
v 199.73765563964844 -60 -10.021109580993652
v 199.73765563964844 -10 -10.021109580993652
v 199.73765563964844 -10 -1010.0211181640625
v 1199.7376708984375 -10 -1010.0211181640625
v 1199.7376708984375 -10 -10.021109580993652
v 199.73765563964844 -60 -10.021109580993652
v 199.73765563964844 -60 -1010.0211181640625
v 1199.7376708984375 -60 -1010.0211181640625
v 1199.7376708984375 -60 -10.021109580993652
vt 0 0
vt 0 0.51219487190246582
vt 0.16429473459720612 0
vt 0.16429473459720612 0.51219487190246582
vt 0.16429473459720612 0
vt 0.16429473459720612 0.51219487190246582
vt 0.5 0
vt 0.5 0.51219487190246582
vt 0.5 0
vt 0.5 0.51219487190246582
vt 0.66429471969604492 0
vt 0.66429471969604492 0.51219487190246582
vt 0.66429471969604492 0
vt 0.66429471969604492 0.51219487190246582
vt 1 0
vt 1 0.51219487190246582
vt 0 1
vt 0.25 1
vt 0.25 0.51219534873962402
vt 0 0.51219534873962402
vt 0.75 0.51219534873962402
vt 1 0.51219534873962402
vt 1 1
vt 0.75 1
vn -1 0 0
vn -1 0 0
vn -1 0 0
vn -1 0 0
vn 0 0 -1
vn 0 0 -1
vn 0 0 -1
vn 0 0 -1
vn 1 0 0
vn 1 0 0
vn 1 0 0
vn 1 0 0
vn 0 0 1
vn 0 0 1
vn 0 0 1
vn 0 0 1
vn 0 1 0
vn 0 1 0
vn 0 1 0
vn 0 1 0
vn 0 -1 0
vn 0 -1 0
vn 0 -1 0
vn 0 -1 0
f 1/1/1 3/3/3 4/4/4 2/2/2
f 5/5/5 7/7/7 8/8/8 6/6/6
f 9/9/9 11/11/11 12/12/12 10/10/10
f 13/13/13 15/15/15 16/16/16 14/14/14
f 18/18/18 17/17/17 20/20/20
f 20/20/20 19/19/19 18/18/18
f 22/22/22 24/24/24 21/21/21
f 24/24/24 22/22/22 23/23/23
