# Rhino

mtllib testbox.mtl
usemtl diffuse_Black
v -1768.37353515625 0 343.3472900390625
v -1768.37353515625 2739.627685546875 343.3472900390625
v -171.55345153808594 0 343.3472900390625
v -171.55345153808594 2739.627685546875 343.3472900390625
v -171.55345153808594 0 343.3472900390625
v -171.55345153808594 2739.627685546875 343.3472900390625
v -171.55345153808594 0 -651.3980712890625
v -171.55345153808594 2739.627685546875 -651.3980712890625
v -171.55345153808594 0 -651.3980712890625
v -171.55345153808594 2739.627685546875 -651.3980712890625
v -1768.37353515625 0 -651.3980712890625
v -1768.37353515625 2739.627685546875 -651.3980712890625
v -1768.37353515625 0 -651.3980712890625
v -1768.37353515625 2739.627685546875 -651.3980712890625
v -1768.37353515625 0 343.3472900390625
v -1768.37353515625 2739.627685546875 343.3472900390625
v -1768.37353515625 0 343.3472900390625
v -171.55345153808594 0 343.3472900390625
v -171.55345153808594 0 -651.3980712890625
v -1768.37353515625 0 -651.3980712890625
v -1768.37353515625 2739.627685546875 343.3472900390625
v -171.55345153808594 2739.627685546875 343.3472900390625
v -171.55345153808594 2739.627685546875 -651.3980712890625
v -1768.37353515625 2739.627685546875 -651.3980712890625
vt 0 0
vt 0 0.78965461254119873
vt 0.30808022618293762 0
vt 0.30808022618293762 0.78965461254119873
vt 0.30808022618293762 0
vt 0.30808022618293762 0.78965461254119873
vt 0.5 0
vt 0.5 0.78965461254119873
vt 0.5 0
vt 0.5 0.78965461254119873
vt 0.80808019638061523 0
vt 0.80808019638061523 0.78965461254119873
vt 0.80808019638061523 0
vt 0.80808019638061523 0.78965461254119873
vt 1 0
vt 1 0.78965461254119873
vt 0 1
vt 0.30808022618293762 1
vt 0.30808022618293762 0.78965538740158081
vt 0 0.78965538740158081
vt 0.69191980361938477 0.78965538740158081
vt 1 0.78965538740158081
vt 1 1
vt 0.69191980361938477 1
vn 0 0 1
vn 0 0 1
vn 0 0 1
vn 0 0 1
vn 1 0 0
vn 1 0 0
vn 1 0 0
vn 1 0 0
vn 0 0 -1
vn 0 0 -1
vn 0 0 -1
vn 0 0 -1
vn -1 0 0
vn -1 0 0
vn -1 0 0
vn -1 0 0
vn 0 -1 0
vn 0 -1 0
vn 0 -1 0
vn 0 -1 0
vn 0 1 0
vn 0 1 0
vn 0 1 0
vn 0 1 0
f 1/1/1 3/3/3 4/4/4 2/2/2
f 5/5/5 7/7/7 8/8/8 6/6/6
f 9/9/9 11/11/11 12/12/12 10/10/10
f 13/13/13 15/15/15 16/16/16 14/14/14
f 18/18/18 17/17/17 20/20/20
f 20/20/20 19/19/19 18/18/18
f 22/22/22 24/24/24 21/21/21
f 24/24/24 22/22/22 23/23/23
usemtl diffuse_Black
v 890.37823486328125 0 411.20574951171875
v 890.37823486328125 3165.737060546875 411.20574951171875
v 955.35992431640625 0 411.20574951171875
v 955.35992431640625 3165.737060546875 411.20574951171875
v 955.35992431640625 0 411.20574951171875
v 955.35992431640625 3165.737060546875 411.20574951171875
v 955.35992431640625 0 -558.9254150390625
v 955.35992431640625 3165.737060546875 -558.9254150390625
v 955.35992431640625 0 -558.9254150390625
v 955.35992431640625 3165.737060546875 -558.9254150390625
v 890.37823486328125 0 -558.9254150390625
v 890.37823486328125 3165.737060546875 -558.9254150390625
v 890.37823486328125 0 -558.9254150390625
v 890.37823486328125 3165.737060546875 -558.9254150390625
v 890.37823486328125 0 411.20574951171875
v 890.37823486328125 3165.737060546875 411.20574951171875
v 890.37823486328125 0 411.20574951171875
v 955.35992431640625 0 411.20574951171875
v 955.35992431640625 0 -558.9254150390625
v 890.37823486328125 0 -558.9254150390625
v 890.37823486328125 3165.737060546875 411.20574951171875
v 955.35992431640625 3165.737060546875 411.20574951171875
v 955.35992431640625 3165.737060546875 -558.9254150390625
v 890.37823486328125 3165.737060546875 -558.9254150390625
vt 0 0
vt 0 1
vt 0.030461613088846207 0
vt 0.030461613088846207 1
vt 0.030461613088846207 0
vt 0.030461613088846207 1
vt 0.48523223400115967 0
vt 0.48523223400115967 1
vt 0.48523223400115967 0
vt 0.48523223400115967 1
vt 0.51569384336471558 0
vt 0.51569384336471558 1
vt 0.51569384336471558 0
vt 0.51569384336471558 1
vt 0.97046446800231934 0
vt 0.97046446800231934 1
vt 0.97046542167663574 0.30644717812538147
vt 1 0.30644717812538147
vt 1 0
vt 0.97046542167663574 0
vt 0.97046542167663574 0.69355279207229614
vt 1 0.69355279207229614
vt 1 1
vt 0.97046542167663574 1
vn 0 0 1
vn 0 0 1
vn 0 0 1
vn 0 0 1
vn 1 0 0
vn 1 0 0
vn 1 0 0
vn 1 0 0
vn 0 0 -1
vn 0 0 -1
vn 0 0 -1
vn 0 0 -1
vn -1 0 0
vn -1 0 0
vn -1 0 0
vn -1 0 0
vn 0 -1 0
vn 0 -1 0
vn 0 -1 0
vn 0 -1 0
vn 0 1 0
vn 0 1 0
vn 0 1 0
vn 0 1 0
f 25/25/25 27/27/27 28/28/28 26/26/26
f 29/29/29 31/31/31 32/32/32 30/30/30
f 33/33/33 35/35/35 36/36/36 34/34/34
f 37/37/37 39/39/39 40/40/40 38/38/38
f 42/42/42 41/41/41 44/44/44
f 44/44/44 43/43/43 42/42/42
f 46/46/46 48/48/48 45/45/45
f 48/48/48 46/46/46 47/47/47
usemtl diffuse_Black
v -10.934982299804688 0 2.6433470249176025
v -10.934982299804688 13.67704963684082 2.6433470249176025
v 0.27634260058403015 0 2.6433470249176025
v 0.27634260058403015 13.67704963684082 2.6433470249176025
v 0.27634260058403015 0 2.6433470249176025
v 0.27634260058403015 13.67704963684082 2.6433470249176025
v 0.27634260058403015 0 -3.486058235168457
v 0.27634260058403015 13.67704963684082 -3.486058235168457
v 0.27634260058403015 0 -3.486058235168457
v 0.27634260058403015 13.67704963684082 -3.486058235168457
v -10.934982299804688 0 -3.486058235168457
v -10.934982299804688 13.67704963684082 -3.486058235168457
v -10.934982299804688 0 -3.486058235168457
v -10.934982299804688 13.67704963684082 -3.486058235168457
v -10.934982299804688 0 2.6433470249176025
v -10.934982299804688 13.67704963684082 2.6433470249176025
v -10.934982299804688 0 2.6433470249176025
v 0.27634260058403015 0 2.6433470249176025
v 0.27634260058403015 0 -3.486058235168457
v -10.934982299804688 0 -3.486058235168457
v -10.934982299804688 13.67704963684082 2.6433470249176025
v 0.27634260058403015 13.67704963684082 2.6433470249176025
v 0.27634260058403015 13.67704963684082 -3.486058235168457
v -10.934982299804688 13.67704963684082 -3.486058235168457
vt 0 0
vt 0 0.76367008686065674
vt 0.32326564192771912 0
vt 0.32326564192771912 0.76367008686065674
vt 0.32326564192771912 0
vt 0.32326564192771912 0.76367008686065674
vt 0.5 0
vt 0.5 0.76367008686065674
vt 0.5 0
vt 0.5 0.76367008686065674
vt 0.8232656717300415 0
vt 0.8232656717300415 0.76367008686065674
vt 0.8232656717300415 0
vt 0.8232656717300415 0.76367008686065674
vt 1 0
vt 1 0.76367008686065674
vt 0 1
vt 0.32326564192771912 1
vt 0.32326564192771912 0.76367080211639404
vt 0 0.76367080211639404
vt 0.6767343282699585 0.76367080211639404
vt 1 0.76367080211639404
vt 1 1
vt 0.6767343282699585 1
vn 0 0 1
vn 0 0 1
vn 0 0 1
vn 0 0 1
vn 1 0 0
vn 1 0 0
vn 1 0 0
vn 1 0 0
vn 0 0 -1
vn 0 0 -1
vn 0 0 -1
vn 0 0 -1
vn -1 0 0
vn -1 0 0
vn -1 0 0
vn -1 0 0
vn 0 -1 0
vn 0 -1 0
vn 0 -1 0
vn 0 -1 0
vn 0 1 0
vn 0 1 0
vn 0 1 0
vn 0 1 0
f 49/49/49 51/51/51 52/52/52 50/50/50
f 53/53/53 55/55/55 56/56/56 54/54/54
f 57/57/57 59/59/59 60/60/60 58/58/58
f 61/61/61 63/63/63 64/64/64 62/62/62
f 66/66/66 65/65/65 68/68/68
f 68/68/68 67/67/67 66/66/66
f 70/70/70 72/72/72 69/69/69
f 72/72/72 70/70/70 71/71/71
usemtl diffuse_Black
v 5.4567761421203613 0 0.145146444439888
v 5.4567761421203613 235.95286560058594 0.145146444439888
v 512.1075439453125 0 0.145146444439888
v 512.1075439453125 235.95286560058594 0.145146444439888
v 512.1075439453125 0 0.145146444439888
v 512.1075439453125 235.95286560058594 0.145146444439888
v 512.1075439453125 0 -193.56954956054688
v 512.1075439453125 235.95286560058594 -193.56954956054688
v 512.1075439453125 0 -193.56954956054688
v 512.1075439453125 235.95286560058594 -193.56954956054688
v 5.4567761421203613 0 -193.56954956054688
v 5.4567761421203613 235.95286560058594 -193.56954956054688
v 5.4567761421203613 0 -193.56954956054688
v 5.4567761421203613 235.95286560058594 -193.56954956054688
v 5.4567761421203613 0 0.145146444439888
v 5.4567761421203613 235.95286560058594 0.145146444439888
v 5.4567761421203613 0 0.145146444439888
v 512.1075439453125 0 0.145146444439888
v 512.1075439453125 0 -193.56954956054688
v 5.4567761421203613 0 -193.56954956054688
v 5.4567761421203613 235.95286560058594 0.145146444439888
v 512.1075439453125 235.95286560058594 0.145146444439888
v 512.1075439453125 235.95286560058594 -193.56954956054688
v 5.4567761421203613 235.95286560058594 -193.56954956054688
vt 0 0
vt 0 0.68925166130065918
vt 0.36170455813407898 0
vt 0.36170455813407898 0.68925166130065918
vt 0.36170455813407898 0
vt 0.36170455813407898 0.68925166130065918
vt 0.5 0
vt 0.5 0.68925166130065918
vt 0.5 0
vt 0.5 0.68925166130065918
vt 0.86170458793640137 0
vt 0.86170458793640137 0.68925166130065918
vt 0.86170458793640137 0
vt 0.86170458793640137 0.68925166130065918
vt 1 0
vt 1 0.68925166130065918
vt 0 1
vt 0.36170455813407898 1
vt 0.36170455813407898 0.68925237655639648
vt 0 0.68925237655639648
vt 0.63829541206359863 0.68925237655639648
vt 1 0.68925237655639648
vt 1 1
vt 0.63829541206359863 1
vn 0 0 1
vn 0 0 1
vn 0 0 1
vn 0 0 1
vn 1 0 0
vn 1 0 0
vn 1 0 0
vn 1 0 0
vn 0 0 -1
vn 0 0 -1
vn 0 0 -1
vn 0 0 -1
vn -1 0 0
vn -1 0 0
vn -1 0 0
vn -1 0 0
vn 0 -1 0
vn 0 -1 0
vn 0 -1 0
vn 0 -1 0
vn 0 1 0
vn 0 1 0
vn 0 1 0
vn 0 1 0
f 73/73/73 75/75/75 76/76/76 74/74/74
f 77/77/77 79/79/79 80/80/80 78/78/78
f 81/81/81 83/83/83 84/84/84 82/82/82
f 85/85/85 87/87/87 88/88/88 86/86/86
f 90/90/90 89/89/89 92/92/92
f 92/92/92 91/91/91 90/90/90
f 94/94/94 96/96/96 93/93/93
f 96/96/96 94/94/94 95/95/95
